<?xml version="1.0" encoding="iso-8859-1"?>
<!-- Generator: Adobe Illustrator 19.0.0, SVG Export Plug-In . SVG Version: 6.00 Build 0)  -->
<svg version="1.1" id="Capa_1" xmlns="http://www.w3.org/2000/svg" xmlns:xlink="http://www.w3.org/1999/xlink" x="0px" y="0px"
	 viewBox="0 0 512.002 512.002" style="enable-background:new 0 0 512.002 512.002;" xml:space="preserve">
<path style="fill:#6B6B6B;" d="M150.068,481.104H50.432c-22.978,0-41.605-18.627-41.605-41.605V57.381h141.241L150.068,481.104
	L150.068,481.104z"/>
<path d="M150.068,489.932H50.431C22.623,489.932,0,467.306,0,439.501V57.381c0-4.875,3.952-8.827,8.827-8.827h141.241
	c4.875,0,8.827,3.952,8.827,8.827v423.724C158.897,485.978,154.943,489.932,150.068,489.932z M17.655,66.208v373.293
	c0,18.073,14.703,32.776,32.776,32.776h90.81V66.208H17.655z"/>
<rect x="70.617" y="92.689" style="fill:#ED9111;" width="291.308" height="388.411"/>
<path d="M361.931,489.932H70.62c-4.875,0-8.827-3.952-8.827-8.827V92.69c0-4.875,3.952-8.827,8.827-8.827h291.31
	c4.875,0,8.827,3.952,8.827,8.827v388.413C370.758,485.978,366.806,489.932,361.931,489.932z M79.448,472.276h273.655V101.518
	H79.448V472.276z"/>
<path style="fill:#E8E8E8;" d="M39.724,92.69h304.552V30.897H39.724c-17.064,0-30.897,13.833-30.897,30.897l0,0
	C8.827,78.858,22.66,92.69,39.724,92.69z"/>
<path d="M344.276,101.518H39.724C17.821,101.518,0,83.697,0,61.794S17.821,22.07,39.724,22.07h304.552
	c4.875,0,8.827,3.952,8.827,8.827V92.69C353.103,97.566,349.151,101.518,344.276,101.518z M39.724,39.725
	c-12.168,0-22.069,9.901-22.069,22.069s9.901,22.069,22.069,22.069h295.723V39.725H39.724z"/>
<path style="fill:#288EEA;" d="M414.896,436.966V128.001h88.275v308.965c0,24.377-19.761,44.138-44.138,44.138l0,0
	C434.656,481.104,414.896,461.343,414.896,436.966z"/>
<path d="M459.034,489.932c-29.207,0-52.966-23.759-52.966-52.966V128.001c0-4.875,3.952-8.827,8.827-8.827h88.275
	c4.875,0,8.827,3.952,8.827,8.827v308.965C511.999,466.173,488.241,489.932,459.034,489.932z M423.724,136.829v300.138
	c0,19.469,15.84,35.311,35.311,35.311c19.47,0,35.311-15.84,35.311-35.311V136.829H423.724z"/>
<polygon style="fill:#99783D;" points="459.034,48.552 414.896,128.001 503.171,128.001 "/>
<path d="M503.171,136.829h-88.275c-3.129,0-6.022-1.655-7.607-4.351c-1.587-2.696-1.629-6.03-0.107-8.763l44.138-79.448
	c1.556-2.804,4.509-4.541,7.716-4.541c3.207,0,6.159,1.737,7.716,4.541l44.138,79.448c1.522,2.733,1.478,6.067-0.107,8.763
	C509.193,135.173,506.302,136.829,503.171,136.829z M429.9,119.174h58.267L459.033,66.73L429.9,119.174z"/>
<path d="M335.448,66.208H61.793c-4.875,0-8.827-3.952-8.827-8.827s3.952-8.827,8.827-8.827h273.655c4.875,0,8.827,3.952,8.827,8.827
	S340.323,66.208,335.448,66.208z"/>
<path d="M450.206,436.966c-4.875,0-8.827-3.952-8.827-8.827V163.311c0-4.875,3.952-8.827,8.827-8.827
	c4.875,0,8.827,3.952,8.827,8.827v264.827C459.034,433.013,455.081,436.966,450.206,436.966z"/>
<g>
</g>
<g>
</g>
<g>
</g>
<g>
</g>
<g>
</g>
<g>
</g>
<g>
</g>
<g>
</g>
<g>
</g>
<g>
</g>
<g>
</g>
<g>
</g>
<g>
</g>
<g>
</g>
<g>
</g>
</svg>
